<svg xmlns="http://www.w3.org/2000/svg" viewBox="0 0 1025.8 120.72"><defs><style>.cls-1{fill:#94ff2e;}.cls-2{fill:#ff7f7c;}.cls-3{fill:#f2f2f2;}.cls-4{fill:#4094ff;}.cls-5{fill:#2a2a2a;}</style></defs><g id="Layer_2" data-name="Layer 2"><g id="Layer_1-2" data-name="Layer 1"><polyline class="cls-1" points="0.07 0.23 120.15 0.23 60.11 60.25"/><polyline class="cls-2" points="120.08 0.23 120.08 120.27 60.04 60.25"/><polyline class="cls-3" points="120.08 120.23 0 120.23 60.04 60.21"/><polyline class="cls-4" points="0.07 120.23 0.07 0.19 60.11 60.21"/><rect class="cls-5" x="20.09" y="20.16" width="80.05" height="80.03"/><path class="cls-3" d="M247.94,80.38v40.18H226.52V80.38a18.77,18.77,0,0,0-37.54,0v40.18H167.57V0H189V44.85a40.18,40.18,0,0,1,59,35.53Z"/><path class="cls-3" d="M352.52,40.19V80.38a40.19,40.19,0,1,1-80.37,0V40.19h21.41V80.38a18.77,18.77,0,1,0,37.54,0V40.19Z"/><path class="cls-3" d="M455,101.84H414.87v18.72A40.14,40.14,0,1,1,455,80.43Zm-21.4-21.41a18.74,18.74,0,1,0-18.78,18.74V80.43Z"/><path class="cls-3" d="M476.49,40.18h21.42A18.79,18.79,0,0,0,516.68,59V80.37A40.22,40.22,0,0,1,476.49,40.18Zm40.19,0a40.19,40.19,0,1,1-40.19,40.19h21.42a18.77,18.77,0,1,0,18.77-18.77V40.19Z"/><path class="cls-3" d="M661.45,80.38v40.18H640V80.38a18.77,18.77,0,0,0-37.54,0v40.18H581.07V0h21.42V44.85a40.18,40.18,0,0,1,59,35.53Z"/><path class="cls-3" d="M687.64,21.52V.07h21.45V21.52Zm0,18.59h21.44v80.45H687.66Z"/><path class="cls-3" d="M816,40.19H794.57A18.77,18.77,0,1,0,775.8,59V80.38A40.19,40.19,0,1,1,816,40.19Zm-80.38,80.37V80.41H757v40.15Z"/><path class="cls-3" d="M887,40.19V61.61H865.6v59H844.18V61.61H822.76V40.19h21.42V0H865.6V40.19Z"/><path class="cls-3" d="M907.42,120.6V99.17h21.44V120.6Z"/><path class="cls-3" d="M954.89,120.56V0h21.42V120.56Z"/><path class="cls-3" d="M1004.36,21.52V.07h21.44V21.52Zm0,18.59h21.44v80.45h-21.42Z"/></g></g></svg>